<mxfile host="app.diagrams.net" modified="2023-11-23T12:49:22.485Z" agent="Mozilla/5.0 (Windows NT 10.0; Win64; x64) AppleWebKit/537.36 (KHTML, like Gecko) Chrome/119.0.0.0 Safari/537.36 Edg/119.0.0.0" etag="62NmcwZEYUdbrd_pQyaw" version="22.1.3" type="github">
  <diagram id="C5RBs43oDa-KdzZeNtuy" name="Page-1">
    <mxGraphModel dx="891" dy="628" grid="1" gridSize="10" guides="1" tooltips="1" connect="1" arrows="1" fold="1" page="1" pageScale="1" pageWidth="827" pageHeight="1169" math="0" shadow="0">
      <root>
        <mxCell id="WIyWlLk6GJQsqaUBKTNV-0" />
        <mxCell id="WIyWlLk6GJQsqaUBKTNV-1" parent="WIyWlLk6GJQsqaUBKTNV-0" />
        <mxCell id="BujpaoAsENS_1RQgkWy6-5" value="" style="edgeStyle=orthogonalEdgeStyle;rounded=0;orthogonalLoop=1;jettySize=auto;html=1;" edge="1" parent="WIyWlLk6GJQsqaUBKTNV-1" source="BujpaoAsENS_1RQgkWy6-0" target="BujpaoAsENS_1RQgkWy6-4">
          <mxGeometry relative="1" as="geometry" />
        </mxCell>
        <mxCell id="BujpaoAsENS_1RQgkWy6-0" value="用戶輸入" style="shape=parallelogram;perimeter=parallelogramPerimeter;whiteSpace=wrap;html=1;fixedSize=1;" vertex="1" parent="WIyWlLk6GJQsqaUBKTNV-1">
          <mxGeometry x="40" y="120" width="120" height="40" as="geometry" />
        </mxCell>
        <mxCell id="BujpaoAsENS_1RQgkWy6-2" style="edgeStyle=orthogonalEdgeStyle;rounded=0;orthogonalLoop=1;jettySize=auto;html=1;entryX=0.5;entryY=0;entryDx=0;entryDy=0;" edge="1" parent="WIyWlLk6GJQsqaUBKTNV-1" source="BujpaoAsENS_1RQgkWy6-1" target="BujpaoAsENS_1RQgkWy6-0">
          <mxGeometry relative="1" as="geometry" />
        </mxCell>
        <mxCell id="BujpaoAsENS_1RQgkWy6-1" value="while迴圈" style="rounded=0;whiteSpace=wrap;html=1;" vertex="1" parent="WIyWlLk6GJQsqaUBKTNV-1">
          <mxGeometry x="40" y="40" width="120" height="40" as="geometry" />
        </mxCell>
        <mxCell id="BujpaoAsENS_1RQgkWy6-7" value="" style="edgeStyle=orthogonalEdgeStyle;rounded=0;orthogonalLoop=1;jettySize=auto;html=1;" edge="1" parent="WIyWlLk6GJQsqaUBKTNV-1" source="BujpaoAsENS_1RQgkWy6-4" target="BujpaoAsENS_1RQgkWy6-6">
          <mxGeometry relative="1" as="geometry" />
        </mxCell>
        <mxCell id="BujpaoAsENS_1RQgkWy6-4" value="初始化winsock2" style="whiteSpace=wrap;html=1;" vertex="1" parent="WIyWlLk6GJQsqaUBKTNV-1">
          <mxGeometry x="40" y="200" width="120" height="40" as="geometry" />
        </mxCell>
        <mxCell id="BujpaoAsENS_1RQgkWy6-9" value="" style="edgeStyle=orthogonalEdgeStyle;rounded=0;orthogonalLoop=1;jettySize=auto;html=1;" edge="1" parent="WIyWlLk6GJQsqaUBKTNV-1" source="BujpaoAsENS_1RQgkWy6-6" target="BujpaoAsENS_1RQgkWy6-8">
          <mxGeometry relative="1" as="geometry" />
        </mxCell>
        <mxCell id="BujpaoAsENS_1RQgkWy6-6" value="用戶輸入之xxx.xxx.xxx.xxx由十進制轉二進制" style="whiteSpace=wrap;html=1;" vertex="1" parent="WIyWlLk6GJQsqaUBKTNV-1">
          <mxGeometry x="40" y="280" width="240" height="40" as="geometry" />
        </mxCell>
        <mxCell id="BujpaoAsENS_1RQgkWy6-11" value="" style="edgeStyle=orthogonalEdgeStyle;rounded=0;orthogonalLoop=1;jettySize=auto;html=1;" edge="1" parent="WIyWlLk6GJQsqaUBKTNV-1" source="BujpaoAsENS_1RQgkWy6-8" target="BujpaoAsENS_1RQgkWy6-10">
          <mxGeometry relative="1" as="geometry" />
        </mxCell>
        <mxCell id="BujpaoAsENS_1RQgkWy6-15" value="N" style="edgeLabel;html=1;align=center;verticalAlign=middle;resizable=0;points=[];" vertex="1" connectable="0" parent="BujpaoAsENS_1RQgkWy6-11">
          <mxGeometry x="-0.6167" y="-3" relative="1" as="geometry">
            <mxPoint x="12" y="-3" as="offset" />
          </mxGeometry>
        </mxCell>
        <mxCell id="BujpaoAsENS_1RQgkWy6-14" value="" style="edgeStyle=orthogonalEdgeStyle;rounded=0;orthogonalLoop=1;jettySize=auto;html=1;" edge="1" parent="WIyWlLk6GJQsqaUBKTNV-1" source="BujpaoAsENS_1RQgkWy6-8" target="BujpaoAsENS_1RQgkWy6-13">
          <mxGeometry relative="1" as="geometry" />
        </mxCell>
        <mxCell id="BujpaoAsENS_1RQgkWy6-17" value="Y" style="edgeLabel;html=1;align=center;verticalAlign=middle;resizable=0;points=[];" vertex="1" connectable="0" parent="BujpaoAsENS_1RQgkWy6-14">
          <mxGeometry x="-0.4833" y="-3" relative="1" as="geometry">
            <mxPoint x="3" y="10" as="offset" />
          </mxGeometry>
        </mxCell>
        <mxCell id="BujpaoAsENS_1RQgkWy6-8" value="EH :域名解析錯誤&lt;br&gt;使用域名解析" style="rhombus;whiteSpace=wrap;html=1;" vertex="1" parent="WIyWlLk6GJQsqaUBKTNV-1">
          <mxGeometry x="80" y="360" width="160" height="80" as="geometry" />
        </mxCell>
        <mxCell id="BujpaoAsENS_1RQgkWy6-12" style="edgeStyle=orthogonalEdgeStyle;rounded=0;orthogonalLoop=1;jettySize=auto;html=1;entryX=1;entryY=0.5;entryDx=0;entryDy=0;" edge="1" parent="WIyWlLk6GJQsqaUBKTNV-1" source="BujpaoAsENS_1RQgkWy6-10" target="BujpaoAsENS_1RQgkWy6-1">
          <mxGeometry relative="1" as="geometry">
            <Array as="points">
              <mxPoint x="440" y="400" />
              <mxPoint x="440" y="60" />
            </Array>
          </mxGeometry>
        </mxCell>
        <mxCell id="BujpaoAsENS_1RQgkWy6-10" value="無法處理用戶輸入。&lt;br&gt;處理後返回" style="whiteSpace=wrap;html=1;" vertex="1" parent="WIyWlLk6GJQsqaUBKTNV-1">
          <mxGeometry x="280" y="380" width="120" height="40" as="geometry" />
        </mxCell>
        <mxCell id="BujpaoAsENS_1RQgkWy6-22" value="" style="edgeStyle=orthogonalEdgeStyle;rounded=0;orthogonalLoop=1;jettySize=auto;html=1;" edge="1" parent="WIyWlLk6GJQsqaUBKTNV-1" source="BujpaoAsENS_1RQgkWy6-13" target="BujpaoAsENS_1RQgkWy6-21">
          <mxGeometry relative="1" as="geometry" />
        </mxCell>
        <mxCell id="BujpaoAsENS_1RQgkWy6-13" value="創建sockaddr_in結構&lt;br&gt;填充AF_INET和IP" style="whiteSpace=wrap;html=1;" vertex="1" parent="WIyWlLk6GJQsqaUBKTNV-1">
          <mxGeometry x="80" y="480" width="160" height="40" as="geometry" />
        </mxCell>
        <mxCell id="BujpaoAsENS_1RQgkWy6-25" value="" style="edgeStyle=orthogonalEdgeStyle;rounded=0;orthogonalLoop=1;jettySize=auto;html=1;" edge="1" parent="WIyWlLk6GJQsqaUBKTNV-1" source="BujpaoAsENS_1RQgkWy6-21" target="BujpaoAsENS_1RQgkWy6-24">
          <mxGeometry relative="1" as="geometry" />
        </mxCell>
        <mxCell id="BujpaoAsENS_1RQgkWy6-21" value="創建Raw類型的Socket&lt;br&gt;設置Socket的超時" style="whiteSpace=wrap;html=1;" vertex="1" parent="WIyWlLk6GJQsqaUBKTNV-1">
          <mxGeometry x="80" y="560" width="160" height="40" as="geometry" />
        </mxCell>
        <mxCell id="BujpaoAsENS_1RQgkWy6-27" value="" style="edgeStyle=orthogonalEdgeStyle;rounded=0;orthogonalLoop=1;jettySize=auto;html=1;" edge="1" parent="WIyWlLk6GJQsqaUBKTNV-1" source="BujpaoAsENS_1RQgkWy6-24" target="BujpaoAsENS_1RQgkWy6-26">
          <mxGeometry relative="1" as="geometry" />
        </mxCell>
        <mxCell id="BujpaoAsENS_1RQgkWy6-29" value="N" style="edgeLabel;html=1;align=center;verticalAlign=middle;resizable=0;points=[];" vertex="1" connectable="0" parent="BujpaoAsENS_1RQgkWy6-27">
          <mxGeometry x="-0.5667" y="1" relative="1" as="geometry">
            <mxPoint x="11" y="1" as="offset" />
          </mxGeometry>
        </mxCell>
        <mxCell id="BujpaoAsENS_1RQgkWy6-31" value="" style="edgeStyle=orthogonalEdgeStyle;rounded=0;orthogonalLoop=1;jettySize=auto;html=1;" edge="1" parent="WIyWlLk6GJQsqaUBKTNV-1" source="BujpaoAsENS_1RQgkWy6-24" target="BujpaoAsENS_1RQgkWy6-30">
          <mxGeometry relative="1" as="geometry" />
        </mxCell>
        <mxCell id="BujpaoAsENS_1RQgkWy6-24" value="EH : 設置超時錯誤" style="rhombus;whiteSpace=wrap;html=1;" vertex="1" parent="WIyWlLk6GJQsqaUBKTNV-1">
          <mxGeometry x="80" y="640" width="160" height="40" as="geometry" />
        </mxCell>
        <mxCell id="BujpaoAsENS_1RQgkWy6-28" style="edgeStyle=orthogonalEdgeStyle;rounded=0;orthogonalLoop=1;jettySize=auto;html=1;endArrow=none;endFill=0;" edge="1" parent="WIyWlLk6GJQsqaUBKTNV-1" source="BujpaoAsENS_1RQgkWy6-26">
          <mxGeometry relative="1" as="geometry">
            <mxPoint x="440" y="400" as="targetPoint" />
          </mxGeometry>
        </mxCell>
        <mxCell id="BujpaoAsENS_1RQgkWy6-26" value="設置錯誤。&lt;br&gt;處理後返回" style="whiteSpace=wrap;html=1;" vertex="1" parent="WIyWlLk6GJQsqaUBKTNV-1">
          <mxGeometry x="280" y="640" width="120" height="40" as="geometry" />
        </mxCell>
        <mxCell id="BujpaoAsENS_1RQgkWy6-33" value="" style="edgeStyle=orthogonalEdgeStyle;rounded=0;orthogonalLoop=1;jettySize=auto;html=1;" edge="1" parent="WIyWlLk6GJQsqaUBKTNV-1" source="BujpaoAsENS_1RQgkWy6-30" target="BujpaoAsENS_1RQgkWy6-32">
          <mxGeometry relative="1" as="geometry" />
        </mxCell>
        <mxCell id="BujpaoAsENS_1RQgkWy6-30" value="設置傳輸ICMP包的buffer&lt;br&gt;設置接收ICMP包的buffer" style="whiteSpace=wrap;html=1;" vertex="1" parent="WIyWlLk6GJQsqaUBKTNV-1">
          <mxGeometry x="80" y="720" width="160" height="40" as="geometry" />
        </mxCell>
        <mxCell id="BujpaoAsENS_1RQgkWy6-35" value="" style="edgeStyle=orthogonalEdgeStyle;rounded=0;orthogonalLoop=1;jettySize=auto;html=1;" edge="1" parent="WIyWlLk6GJQsqaUBKTNV-1" source="BujpaoAsENS_1RQgkWy6-32" target="BujpaoAsENS_1RQgkWy6-34">
          <mxGeometry relative="1" as="geometry" />
        </mxCell>
        <mxCell id="BujpaoAsENS_1RQgkWy6-32" value="創建ICMP結構&lt;br&gt;填充type、code、id&lt;br&gt;填充數據段&#39;E&#39;" style="whiteSpace=wrap;html=1;" vertex="1" parent="WIyWlLk6GJQsqaUBKTNV-1">
          <mxGeometry x="80" y="790" width="160" height="50" as="geometry" />
        </mxCell>
        <mxCell id="BujpaoAsENS_1RQgkWy6-39" value="" style="edgeStyle=orthogonalEdgeStyle;rounded=0;orthogonalLoop=1;jettySize=auto;html=1;" edge="1" parent="WIyWlLk6GJQsqaUBKTNV-1" source="BujpaoAsENS_1RQgkWy6-34" target="BujpaoAsENS_1RQgkWy6-38">
          <mxGeometry relative="1" as="geometry" />
        </mxCell>
        <mxCell id="BujpaoAsENS_1RQgkWy6-34" value="創建儲存解碼結果的對象&lt;br&gt;設定傳輸停止的Flag、序列號、TTL、最大跳站數" style="whiteSpace=wrap;html=1;" vertex="1" parent="WIyWlLk6GJQsqaUBKTNV-1">
          <mxGeometry x="70" y="880" width="180" height="80" as="geometry" />
        </mxCell>
        <mxCell id="BujpaoAsENS_1RQgkWy6-41" value="" style="edgeStyle=orthogonalEdgeStyle;rounded=0;orthogonalLoop=1;jettySize=auto;html=1;" edge="1" parent="WIyWlLk6GJQsqaUBKTNV-1" source="BujpaoAsENS_1RQgkWy6-38" target="BujpaoAsENS_1RQgkWy6-40">
          <mxGeometry relative="1" as="geometry">
            <Array as="points">
              <mxPoint x="160" y="1120" />
              <mxPoint x="160" y="1120" />
            </Array>
          </mxGeometry>
        </mxCell>
        <mxCell id="BujpaoAsENS_1RQgkWy6-50" value="Y" style="edgeLabel;html=1;align=center;verticalAlign=middle;resizable=0;points=[];" vertex="1" connectable="0" parent="BujpaoAsENS_1RQgkWy6-41">
          <mxGeometry x="0.2978" y="3" relative="1" as="geometry">
            <mxPoint x="-3" y="-6" as="offset" />
          </mxGeometry>
        </mxCell>
        <mxCell id="BujpaoAsENS_1RQgkWy6-44" value="" style="edgeStyle=orthogonalEdgeStyle;rounded=0;orthogonalLoop=1;jettySize=auto;html=1;" edge="1" parent="WIyWlLk6GJQsqaUBKTNV-1" source="BujpaoAsENS_1RQgkWy6-38" target="BujpaoAsENS_1RQgkWy6-43">
          <mxGeometry relative="1" as="geometry" />
        </mxCell>
        <mxCell id="BujpaoAsENS_1RQgkWy6-47" value="" style="edgeStyle=orthogonalEdgeStyle;rounded=0;orthogonalLoop=1;jettySize=auto;html=1;" edge="1" parent="WIyWlLk6GJQsqaUBKTNV-1" source="BujpaoAsENS_1RQgkWy6-38" target="BujpaoAsENS_1RQgkWy6-43">
          <mxGeometry relative="1" as="geometry" />
        </mxCell>
        <mxCell id="BujpaoAsENS_1RQgkWy6-49" value="N" style="edgeLabel;html=1;align=center;verticalAlign=middle;resizable=0;points=[];" vertex="1" connectable="0" parent="BujpaoAsENS_1RQgkWy6-47">
          <mxGeometry x="-0.6667" y="3" relative="1" as="geometry">
            <mxPoint x="13" y="3" as="offset" />
          </mxGeometry>
        </mxCell>
        <mxCell id="BujpaoAsENS_1RQgkWy6-38" value="while Loop" style="whiteSpace=wrap;html=1;" vertex="1" parent="WIyWlLk6GJQsqaUBKTNV-1">
          <mxGeometry x="100" y="1000" width="120" height="80" as="geometry" />
        </mxCell>
        <mxCell id="BujpaoAsENS_1RQgkWy6-52" value="" style="edgeStyle=orthogonalEdgeStyle;rounded=0;orthogonalLoop=1;jettySize=auto;html=1;" edge="1" parent="WIyWlLk6GJQsqaUBKTNV-1" source="BujpaoAsENS_1RQgkWy6-40" target="BujpaoAsENS_1RQgkWy6-51">
          <mxGeometry relative="1" as="geometry" />
        </mxCell>
        <mxCell id="BujpaoAsENS_1RQgkWy6-40" value="設置sockRaw的TTL&lt;br&gt;設置ICMP傳輸緩衝區的cksum和序列號&lt;br&gt;在解碼結果結構中儲存當前序列號和時間" style="whiteSpace=wrap;html=1;" vertex="1" parent="WIyWlLk6GJQsqaUBKTNV-1">
          <mxGeometry x="40" y="1120" width="240" height="50" as="geometry" />
        </mxCell>
        <mxCell id="BujpaoAsENS_1RQgkWy6-45" style="edgeStyle=orthogonalEdgeStyle;rounded=0;orthogonalLoop=1;jettySize=auto;html=1;endArrow=none;endFill=0;spacing=0;spacingRight=3;" edge="1" parent="WIyWlLk6GJQsqaUBKTNV-1" source="BujpaoAsENS_1RQgkWy6-43">
          <mxGeometry relative="1" as="geometry">
            <mxPoint x="440" y="660" as="targetPoint" />
            <Array as="points">
              <mxPoint x="440" y="1040" />
              <mxPoint x="440" y="950" />
              <mxPoint x="440" y="950" />
              <mxPoint x="440" y="850" />
            </Array>
          </mxGeometry>
        </mxCell>
        <mxCell id="BujpaoAsENS_1RQgkWy6-43" value="傳輸停止Flag為True&lt;br&gt;或&lt;br&gt;跳站數使用完&lt;br&gt;" style="whiteSpace=wrap;html=1;" vertex="1" parent="WIyWlLk6GJQsqaUBKTNV-1">
          <mxGeometry x="260" y="1000" width="120" height="80" as="geometry" />
        </mxCell>
        <mxCell id="BujpaoAsENS_1RQgkWy6-54" value="" style="edgeStyle=orthogonalEdgeStyle;rounded=0;orthogonalLoop=1;jettySize=auto;html=1;" edge="1" parent="WIyWlLk6GJQsqaUBKTNV-1" source="BujpaoAsENS_1RQgkWy6-51" target="BujpaoAsENS_1RQgkWy6-53">
          <mxGeometry relative="1" as="geometry" />
        </mxCell>
        <mxCell id="BujpaoAsENS_1RQgkWy6-51" value="使用sockRaw傳輸ICMP傳輸緩衝區" style="whiteSpace=wrap;html=1;" vertex="1" parent="WIyWlLk6GJQsqaUBKTNV-1">
          <mxGeometry x="100" y="1200" width="120" height="40" as="geometry" />
        </mxCell>
        <mxCell id="BujpaoAsENS_1RQgkWy6-53" value="EH : 目的地不可達" style="rhombus;whiteSpace=wrap;html=1;" vertex="1" parent="WIyWlLk6GJQsqaUBKTNV-1">
          <mxGeometry x="40" y="1280" width="230" height="40" as="geometry" />
        </mxCell>
      </root>
    </mxGraphModel>
  </diagram>
</mxfile>
